<svg xmlns="http://www.w3.org/2000/svg" width="1366.315" height="485.856" viewBox="0 0 1366.315 485.856">
  <g id="Group_245" data-name="Group 245" transform="translate(0 -9305.385)">
    <path id="Path_20" data-name="Path 20" d="M0,7153.059c66.059-39.635,82.573,25.323,106.795,26.424s39.635-88.078,95.785-90.28,91.381,129.916,132.117,131.017,22.02-84.776,52.847-83.675,70.463,82.574,116.7,83.675,48.443-123.31,134.319-122.209,137.622,63.857,191.57,62.756,77.069-91.381,158.541-91.381,44.039,146.431,94.684,145.33,42.938-115.6,97.987-116.7,71.564,118.906,106.8,122.209,78.169-34.13,78.169-34.13V7333.62H0Z" transform="translate(0 2236)" fill="#4857a3"/>
    <path id="Path_21" data-name="Path 21" d="M0,7153.059c66.059-39.635,82.573,25.323,106.795,26.424s41.837-88.078,97.987-90.28,82.573,125.258,123.31,126.359,41.837-79.271,72.665-78.169,52.847,69.362,112.3,69.362,52.847-132.118,138.723-131.017,124.411,86.13,178.359,85.029,58.352-85.029,139.824-85.029,60.554,132.118,111.2,131.017,49.544-116.45,104.593-117.551,46.241,121.956,97.987,117.551,82.573-20.665,82.573-20.665v96.42L0,7282.017Z" transform="translate(0 2288)" fill="#e6275d"/>
    <path id="Path_22" data-name="Path 22" d="M0,7153.059c57.329-73.5,82.573,25.323,106.795,26.424s42.267-78.173,98.417-80.375,82.143,115.354,122.88,116.454,50.2-74.558,81.03-73.457,44.482,64.649,103.935,64.649,64.262-141.314,150.138-140.213,113,95.327,166.944,94.226,39.385-91.5,134.491-87.839,65.888,134.928,116.533,133.827,44.463-120.092,104.511-123.664,46.323,128.068,98.069,123.664,82.573-20.665,82.573-20.665v173.847L0,7351.122Z" transform="translate(0 2333)" fill="#ffd402"/>
    <path id="Path_23" data-name="Path 23" d="M0,7153.059c57.329-73.5,82.573,25.323,106.795,26.424s42.267-78.173,98.417-80.375,82.143,115.354,122.88,116.454,50.2-74.558,81.03-73.457,44.482,64.649,103.935,64.649,64.262-141.314,150.138-140.213,113,95.327,166.944,94.226,39.385-91.5,134.491-87.839,65.888,134.928,116.533,133.827,44.463-120.092,104.511-123.664,46.323,128.068,98.069,123.664,82.573-20.665,82.573-20.665v204.566H0Z" transform="translate(0 2400.586)" fill="#fff0d2"/>
  </g>
</svg>
