<svg xmlns="http://www.w3.org/2000/svg" width="356.106" height="969.095" viewBox="0 0 356.106 969.095">
  <g id="Group_231" data-name="Group 231" transform="translate(356.039 400) rotate(180)">
    <g id="Group_227" data-name="Group 227" transform="translate(0 0)">
      <g id="Group_226" data-name="Group 226" transform="translate(441.147 0) rotate(90)">
        <path id="Path_1" data-name="Path 1" d="M399.98,441.027c1.46-146.615-76.426-199.181-125.649-217.662s-99.5,8.311-113.272-61.9c-4.406-22.468-27.391-75.763-69.351-76.345-46.623-.583-23.923,33.685-108.4,51.651-116.557,36.932-96.16-24.843-159.1-20.181-116.328,25.09-132.161,88.7-197.564,126.465-52.2,35.567-105.516-32.167-171.967,31.714-60.6,62.187,13.789,166.449,13.789,166.449Z" transform="translate(0 0)" fill="#4857a3"/>
        <path id="Path_2" data-name="Path 2" d="M323.455,397.076s14.012-78.55-28.087-116.531-110.029-7.163-149.932-50.013-31.114-81.465-83.314-111.013c-56.14-16.743-73.262,40-148.115,48.867-65.913,15.152-98.34-50.987-158.343-14.395-57.713,29.061-40.063,47.5-92.429,95.535-47.423,43.5-75.838-44.321-128.038,41.366-26.592,47.276-30.532,106.183-30.532,106.183Z" transform="translate(0.244 43.951)" fill="#e6275d"/>
        <path id="Path_3" data-name="Path 3" d="M217.237,263.238s14.679-42.96-9.636-63.535-64.842-3.741-94.145-21.822-49.88-23.528-52.5-71.572S35.642,50.6,26.482,43.275C-33.6,41.305-14.039,95.5-60.189,94.49c-62.049-.985-34.472-23.638-81.747-28.562-43.336.985-63.232,65.19-90.809,84.888-14.573,12.953-66.479-8.444-99.073,12.238-46.369,29.423-74.072,100.183-74.072,100.183Z" transform="translate(0.426 177.909)" fill="#ffd402"/>
      </g>
    </g>
  </g>
</svg>
