<svg xmlns="http://www.w3.org/2000/svg" width="447.148" height="399.574" viewBox="0 0 447.148 399.574">
  <g id="Group_228" data-name="Group 228" transform="translate(0 -78.004)">
    <g id="Group_227" data-name="Group 227" transform="translate(0 78.004)">
      <g id="Group_226" data-name="Group 226" transform="translate(447.148 0) rotate(90)">
        <path id="Path_1" data-name="Path 1" d="M399.324,447.027c1.46-146.615-76.426-199.181-125.649-217.662s-118.764-16.383-132.534-86.6c-4.406-22.468-18.325-74.484-38.318-95.2C61.016,4.242,0,0,0,0V447.027Z" transform="translate(0.23)" fill="#4857a3"/>
        <path id="Path_2" data-name="Path 2" d="M323.042,395.775s14.012-78.55-28.087-116.531S184.925,272.08,145.023,229.23s-39.9-64.275-36.785-149.209S0,.054,0,.054v395.72Z" transform="translate(0.23 51.252)" fill="#e6275d"/>
        <path id="Path_3" data-name="Path 3" d="M217.237,261.484s14.679-42.96-9.636-63.535-64.842-3.741-94.145-21.822S64.328,124.414,61.706,76.371,44.68,12.622,35.52,5.294.146.381.146.381L0,262.074Z" transform="translate(0 185.074)" fill="#ffd402"/>
      </g>
    </g>
  </g>
</svg>
